<?xml version="1.0" encoding="UTF-8"?>
<svg width="90px" height="72px" viewBox="0 0 90 72" version="1.1" xmlns="http://www.w3.org/2000/svg" xmlns:xlink="http://www.w3.org/1999/xlink">
    <!-- Generator: Sketch 50.2 (55047) - http://www.bohemiancoding.com/sketch -->
    <title>icon-bolt</title>
    <desc>Created with Sketch.</desc>
    <defs></defs>
    <g id="icon-bolt" stroke="none" stroke-width="1" fill="none" fill-rule="evenodd">
        <path d="M0,0 L91,0 L91,72 L0,72 L0,0 Z" id="Rectangle-3" fill="#000000"></path>
        <path d="M27.2008328,36.7672419 L20.4963169,38.6328399 L15.630691,36.7672419 L11,26.564256 L17.284106,14.1073538 L27.2008328,11 L32.473966,14.1073538 L35.5880634,22.1065466 L43.1664619,26.564256 L43.5497768,27.425239 L75.1643836,44.2705946 C77.4124833,47.8634585 77.5956286,51.3669453 75.7138195,54.7810553 C73.8320105,58.1951652 70.7550977,59.5371669 66.4830812,58.8070605 L35.0018013,40.5814372 L33.8144929,40.5814372 L27.2008328,36.7672419 Z" id="Path-3" stroke="#FFFFFF"></path>
        <path d="M35.334517,40.5898438 C34.7990075,36.4010806 35.2862378,33.1869025 36.796208,30.9473094 C38.3061782,28.7077163 40.3741089,27.3919465 43,27" id="Path-4" stroke="#FFFFFF" stroke-width="0.4"></path>
        <polyline id="Path-5" stroke="#FFFFFF" stroke-width="0.4" points="21.158343 38 17 28.6411227 23.0511004 16.7606148 33 14"></polyline>
        <path d="M27.6862948,37 L23.6746278,34.7035524 C21.3021336,31.3721198 21.4505259,27.8475314 24.1198045,24.1297873 C26.789083,20.4120432 29.7522067,19.204408 33.0091755,20.5068817 L37,22.7549946" id="Path-6" stroke="#FFFFFF" stroke-width="0.4"></path>
        <path d="M67.9402644,58.9584657 C65.3740755,58.9584657 65.4382093,52.9959575 67.5218203,49.2213521 C69.6054313,45.4467467 74.9947189,42.8611519 75.9513494,46.0276989" id="Path-7" stroke="#FFFFFF" stroke-width="0.4"></path>
        <path d="M17,29 L11,26" id="Path-8" stroke="#FFFFFF" stroke-width="0.4"></path>
        <path d="M23,17 L17,14" id="Path-9" stroke="#FFFFFF" stroke-width="0.4"></path>
        <path d="M69,41 C65.8781416,42.520188 63.7392644,44.2305068 62.5833682,46.1309565 C61.4274721,48.0314061 60.9044495,51.3210873 61.0143005,56" id="Path-10" stroke="#FFFFFF" stroke-width="0.4"></path>
        <path d="M67,40 C63.8754811,41.5423425 61.734781,43.2775868 60.5778998,45.2057328 C59.4210186,47.1338788 58.9002871,50.3986345 59.0157055,55" id="Path-10-Copy-3" stroke="#FFFFFF" stroke-width="0.4"></path>
        <path d="M65,39 C61.887255,40.4590085 59.7546215,42.1004962 58.6020997,43.9244629 C57.4495778,45.7484296 56.9188837,48.7736086 57.0100172,53" id="Path-10-Copy-4" stroke="#FFFFFF" stroke-width="0.4"></path>
        <path d="M63,38 C59.887255,39.4590085 57.7546215,41.1004962 56.6020997,42.9244629 C55.4495778,44.7484296 54.9188837,47.7736086 55.0100172,52" id="Path-10-Copy-5" stroke="#FFFFFF" stroke-width="0.4"></path>
        <path d="M61,37 C57.887255,38.4590085 55.7546215,40.1004962 54.6020997,41.9244629 C53.4495778,43.7484296 52.9188837,46.7736086 53.0100172,51" id="Path-10-Copy-6" stroke="#FFFFFF" stroke-width="0.4"></path>
        <path d="M59,36 C55.8897262,37.4876299 53.7587858,39.1613186 52.607179,41.0210661 C51.4555721,42.8808136 50.9228439,45.8737916 51.0089944,50" id="Path-10-Copy-7" stroke="#FFFFFF" stroke-width="0.4"></path>
        <path d="M71,42 C67.8781416,43.520188 65.7392644,45.2305068 64.5833682,47.1309565 C63.4274721,49.0314061 62.9044495,52.3210873 63.0143005,57" id="Path-10-Copy" stroke="#FFFFFF" stroke-width="0.4"></path>
    </g>
</svg>