<?xml version="1.0" encoding="UTF-8"?>
<svg width="90px" height="72px" viewBox="0 0 90 72" version="1.1" xmlns="http://www.w3.org/2000/svg" xmlns:xlink="http://www.w3.org/1999/xlink">
    <!-- Generator: Sketch 50.2 (55047) - http://www.bohemiancoding.com/sketch -->
    <title>icon-mixed</title>
    <desc>Created with Sketch.</desc>
    <defs>
        <rect id="path-1" x="0" y="0" width="90" height="72"></rect>
    </defs>
    <g id="Symbols" stroke="none" stroke-width="1" fill="none" fill-rule="evenodd">
        <g id="icon-mixed">
            <g>
                <g id="nut-copy">
                    <mask id="mask-2" fill="white">
                        <use xlink:href="#path-1"></use>
                    </mask>
                    <use id="Mask" fill="#000000" xlink:href="#path-1"></use>
                    <g mask="url(#mask-2)" stroke="#FFFFFF" stroke-width="0.5">
                        <g transform="translate(29.969544, 39.713012) rotate(-33.000000) translate(-29.969544, -39.713012) translate(14.145368, 8.713012)">
                            <polygon id="Path-11" fill="none" points="17.0679705 25.9532549 7.10426978 18.8012497 5.03892571 6.07903791 10.1875568 1.00304847 21.2299021 3.79621126 31.5720955 10.5601421 31.5720955 20.3191804 23.0319081 27.3014791"></polygon>
                            <path d="M19.9825426,13.6644335 L29.9521944,19.7498423" id="Path-19" fill="none"></path>
                            <polygon id="Path-12" fill="none" points="29.9399946 11.605145 29.9399946 19.6668138 22.7754139 25.8489371 18.2992619 24.9921928 16.7772571 14.0117541 20.2661146 10.4804591"></polygon>
                            <path d="M18.0394945,4.65021835 C18.5047583,3.53097608 19.0417861,2.79710175 19.6505778,2.44859537 C20.5637653,1.92583581 21.3408805,1.90274823 22.1380734,2.44859537 C22.6695354,2.81249346 22.8681954,3.54636779 22.7340534,4.65021835 L22.7340534,7.80012983 L23.9820081,7.80012983 L23.9820081,4.04894627 C23.8610334,2.79370911 23.5774614,1.9081735 23.1312922,1.39233945 C22.685123,0.876505403 21.978276,0.616978082 21.0107513,0.613757489 C20.3639565,0.492669201 19.6581386,0.752196522 18.8932976,1.39233945 C18.1284565,2.03248238 17.4661563,2.91801799 16.9063969,4.04894627 L18.0394945,4.65021835 Z" id="Path-13" fill="#000000" fill-rule="evenodd"></path>
                            <path d="M22.163934,10.9594695 C21.6049831,13.9904095 21.0237992,16.4169802 20.4203821,18.2391815 C19.816965,20.0613829 19.0604283,21.9378573 18.1507718,23.8686048 C18.2244953,24.2874377 18.3067313,24.5656093 18.3974797,24.7031195 C18.4882282,24.8406298 18.6497836,24.9318729 18.8821459,24.9768488 C19.6385853,23.2965202 20.4527102,21.2472042 21.3245205,18.8289006 C22.1963308,16.410597 22.884582,13.7874533 23.3892742,10.9594695 L22.163934,10.9594695 Z" id="Path-14" fill="#000000" fill-rule="evenodd"></path>
                            <polygon id="Path-15" fill="none" points="17.2459096 26.1667567 2.98816193 61.8230734 4.20546817 61.8230734 18.356133 26.4331725"></polygon>
                            <polygon id="Path-16" fill="none" points="12.2148136 22.6920305 2.21808406 61.9720988 0.829384914 61.9720988 11.2049047 21.8760402"></polygon>
                            <polygon id="Path-18" fill="none" points="19.83211 10.7826087 19.83211 13.4936554 17.2018712 16.4509054 16.7032967 14.0782002"></polygon>
                            <polyline id="Path-17" fill="none" points="10.2271227 1.1315425 20.0410557 8.6004403 31.5697635 10.619303"></polyline>
                            <polyline id="Path-20" fill="none" points="20.0873778 8.6644449 15.5805826 13.5531684 17.1984241 25.9760219"></polyline>
                            <path d="M5.07233312,6.08181567 L15.5577647,13.5854338" id="Path-21" fill="none"></path>
                        </g>
                    </g>
                </g>
                <g id="boltcopy" transform="translate(63.791209, 32.000000) rotate(95.000000) translate(-63.791209, -32.000000) translate(37.582418, 13.000000)" stroke="#FFFFFF">
                    <path d="M12.8667953,20.3990665 L7.54202994,21.8759983 L3.67772163,20.3990665 L0,12.3217026 L4.99087342,2.45998845 L12.8667953,0 L17.0547483,2.45998845 L19.5279824,8.79268269 L25.5467905,12.3217026 L25.8512214,13.0033142 L50.9597253,26.3392207 C52.745179,29.1835713 52.8906341,31.9571651 51.3960904,34.6600021 C49.9015468,37.3628391 47.4578448,38.4252571 44.0649846,37.8472562 L19.0623697,23.4186378 L18.1194024,23.4186378 L12.8667953,20.3990665 Z" id="Path-3" stroke-width="0.8"></path>
                    <path d="M19.9386687,24 C19.535185,20.6094978 19.9022924,18.0078521 21.039991,16.1950627 C22.1776896,14.3822734 23.7357879,13.3172524 25.7142857,13" id="Path-4" stroke-width="0.5"></path>
                    <polyline id="Path-5" stroke-width="0.5" points="7.67600511 21.6642833 3.95604396 13.5908888 8.81853532 4.18548675 16.8131868 2"></polyline>
                    <path d="M13.36357,20.6014176 L9.23706814,19.1088079 C7.35992991,16.3652751 7.47733914,13.4626729 9.58929583,10.4010013 C11.7012525,7.33932969 14.045702,6.34480659 16.6226444,7.41743202 L19.7802198,9.26881908" id="Path-6" stroke-width="0.5"></path>
                    <path d="M45.0688364,38 C43.0316241,38 43.0825378,33.4305549 44.7366475,30.5378373 C46.3907573,27.6451198 50.7984508,25.272347 51.5578881,27.6990711" id="Path-7" stroke-width="0.5"></path>
                    <path d="M4.17958621,13.5180949 L0,12" id="Path-8" stroke-width="0.5"></path>
                    <path d="M8.9010989,4 L5.05378954,2.48067766" id="Path-9" stroke-width="0.5"></path>
                    <path d="M45.9359088,23.6350251 C43.3259757,25.0944921 41.5923115,26.5844054 40.734916,28.1047652 C39.8775205,29.6251249 39.4714143,31.994919 39.5165974,35.2141474" id="Path-10" stroke-width="0.5"></path>
                    <path d="M44.127693,22.7320301 C41.4025824,24.1445507 39.6109639,25.6220694 38.7528378,27.1645862 C37.8947116,28.707103 37.5652835,31.0495683 37.7645537,34.1919819" id="Path-10-Copy-3" stroke-width="0.5"></path>
                    <path d="M42.3574769,21.7290417 C39.6881146,23.0797545 37.9259872,24.4716692 37.0710946,25.9047859 C36.216202,27.3379026 35.9059784,29.8019593 36.1404237,33.296956" id="Path-10-Copy-4" stroke-width="0.5"></path>
                    <path d="M40.5494505,21 C38.2405463,22.1463638 36.6586478,23.4361041 35.8037552,24.8692208 C34.9488627,26.3023375 34.5552159,28.6792639 34.622815,32" id="Path-10-Copy-5" stroke-width="0.5"></path>
                    <path d="M39.1660018,20.1346784 C36.599686,21.7129538 34.8890819,23.2186498 34.0341893,24.6517665 C33.1792967,26.0848832 32.8960347,28.401416 33.1844032,31.6013649" id="Path-10-Copy-6" stroke-width="0.5"></path>
                    <path d="M37.9189674,19.5049748 C35.2644537,20.8673232 33.5100899,22.2791125 32.655876,23.7403427 C31.8016621,25.2015729 31.4680446,27.6214586 31.6550233,31" id="Path-10-Copy-7" stroke-width="0.5"></path>
                    <path d="M48.4425482,25 C45.4406047,26.5358385 43.5109352,28.0639376 42.6535397,29.5842973 C41.7961442,31.104657 41.4331941,33.3571013 41.5646894,36.3416302" id="Path-10-Copy" stroke-width="0.5"></path>
                </g>
            </g>
        </g>
    </g>
</svg>