<?xml version="1.0" encoding="UTF-8"?>
<svg width="91px" height="72px" viewBox="0 0 91 72" version="1.1" xmlns="http://www.w3.org/2000/svg" xmlns:xlink="http://www.w3.org/1999/xlink">
    <!-- Generator: Sketch 50.2 (55047) - http://www.bohemiancoding.com/sketch -->
    <title>nut + nut copy Mask</title>
    <desc>Created with Sketch.</desc>
    <defs>
        <path d="M0,0 L91,0 L91,72 L0,72 L0,0 Z" id="path-1"></path>
    </defs>
    <g id="Symbols" stroke="none" stroke-width="1" fill="none" fill-rule="evenodd">
        <g id="icon-nut">
            <g id="nut-+-nut-copy-Mask">
                <mask id="mask-2" fill="white">
                    <use xlink:href="#path-1"></use>
                </mask>
                <use id="Mask" fill="#000000" xlink:href="#path-1"></use>
                <g id="nut" mask="url(#mask-2)" stroke="#FFFFFF" stroke-width="0.5">
                    <g transform="translate(47.000000, 4.000000)">
                        <polygon id="Path-11" fill="none" points="19.4148164 28.8834611 8.08110688 20.9239714 5.73177799 6.7653809 11.5883459 1.11629588 24.1490137 4.22481576 35.9132586 11.7524162 35.9132586 22.6132814 26.1987955 30.3839041"></polygon>
                        <path d="M22.7301422,15.2071921 L34.0706212,21.9796632" id="Path-19" fill="none"></path>
                        <polygon id="Path-12" fill="none" points="34.0567438 12.9154034 34.0567438 21.8872606 25.9070333 28.7673655 20.8154104 27.813892 19.08413 15.5937263 23.0527053 11.6637367"></polygon>
                        <path d="M20.519925,5.17524301 C21.0491626,3.92963467 21.6600317,3.11290356 22.3525322,2.72504969 C23.391283,2.14326888 24.2752516,2.11757465 25.1820585,2.72504969 C25.7865965,3.13003305 26.0125722,3.94676416 25.8599858,5.17524301 L25.8599858,8.68078965 L27.2795342,8.68078965 L27.2795342,4.50608536 C27.1419254,3.10912787 26.8193623,2.12361244 26.3118449,1.54953907 C25.8043274,0.975465691 25.000289,0.686636898 23.8997296,0.683052689 C23.1640005,0.548293143 22.3611327,0.837121935 21.491126,1.54953907 C20.6211193,2.2619562 19.8677528,3.24747163 19.2310265,4.50608536 L20.519925,5.17524301 Z" id="Path-13" fill="#000000" fill-rule="evenodd"></path>
                        <path d="M25.2114749,12.1968289 C24.5756683,15.5699719 23.9145716,18.2705102 23.2281846,20.298444 C22.5417977,22.3263777 21.6812371,24.4147122 20.6465029,26.5634473 C20.7303634,27.0295678 20.8239068,27.3391458 20.9271332,27.4921814 C21.0303596,27.645217 21.2141289,27.7467617 21.478441,27.7968156 C22.3388908,25.9267725 23.2649578,23.6460821 24.256642,20.9547442 C25.2483262,18.2634063 26.031212,15.3441012 26.6052995,12.1968289 L25.2114749,12.1968289 Z" id="Path-14" fill="#000000" fill-rule="evenodd"></path>
                        <polygon id="Path-15" fill="none" points="19.6172222 29.1210679 3.3990342 68.8030978 4.78372005 68.8030978 20.8801013 29.4175629"></polygon>
                        <polygon id="Path-16" fill="none" points="13.8943505 25.254034 2.52307062 68.9689487 0.94342534 68.9689487 12.7455791 24.3459157"></polygon>
                        <polygon id="Path-18" fill="none" points="22.5590251 12 22.5590251 15.0171326 19.5671285 18.3082656 19 15.6676744"></polygon>
                        <polyline id="Path-17" fill="none" points="11.6333521 1.2592973 22.7967009 9.57145776 35.910606 11.8182566"></polyline>
                        <polyline id="Path-20" fill="none" points="22.8493923 9.64268868 17.7229127 15.0833649 19.5632075 28.9087985"></polyline>
                        <path d="M5.76977893,6.76847227 L17.6969574,15.1192731" id="Path-21" fill="none"></path>
                    </g>
                </g>
                <g id="nut-copy" mask="url(#mask-2)" stroke="#FFFFFF" stroke-width="0.5">
                    <g transform="translate(33.302539, 39.713012) rotate(-33.000000) translate(-33.302539, -39.713012) translate(17.302539, 8.713012)">
                        <polygon id="Path-11" fill="none" points="17.2576146 25.9532549 7.18320612 18.8012497 5.09491377 6.07903791 10.3007519 1.00304847 21.4657899 3.79621126 31.9228965 10.5601421 31.9228965 20.3191804 23.2878182 27.3014791"></polygon>
                        <path d="M20.2045709,13.6644335 L30.2849966,19.7498423" id="Path-19" fill="none"></path>
                        <polygon id="Path-12" fill="none" points="30.2726612 11.605145 30.2726612 19.6668138 23.028474 25.8489371 18.502587 24.9921928 16.9636711 14.0117541 20.4912936 10.4804591"></polygon>
                        <path d="M18.2399333,4.65021835 C18.7103668,3.53097608 19.2533615,2.79710175 19.8689175,2.44859537 C20.7922516,1.92583581 21.5780014,1.90274823 22.384052,2.44859537 C22.9214191,2.81249346 23.1222864,3.54636779 22.986654,4.65021835 L22.986654,7.80012983 L24.2484748,7.80012983 L24.2484748,4.04894627 C24.1261559,2.79370911 23.8394332,1.9081735 23.3883066,1.39233945 C22.9371799,0.876505403 22.2224791,0.616978082 21.2442041,0.613757489 C20.5902227,0.492669201 19.8765624,0.752196522 19.1032231,1.39233945 C18.3298838,2.03248238 17.6602247,2.91801799 17.0942458,4.04894627 L18.2399333,4.65021835 Z" id="Path-13" fill="#000000" fill-rule="evenodd"></path>
                        <path d="M22.4101999,10.9594695 C21.8450385,13.9904095 21.2573969,16.4169802 20.6472752,18.2391815 C20.0371535,20.0613829 19.2722108,21.9378573 18.352447,23.8686048 C18.4269897,24.2874377 18.5101394,24.5656093 18.6018962,24.7031195 C18.693653,24.8406298 18.8570034,24.9318729 19.0919476,24.9768488 C19.8567918,23.2965202 20.6799625,21.2472042 21.5614596,18.8289006 C22.4429566,16.410597 23.1388551,13.7874533 23.6491551,10.9594695 L22.4101999,10.9594695 Z" id="Path-14" fill="#000000" fill-rule="evenodd"></path>
                        <polygon id="Path-15" fill="none" points="17.4375308 26.1667567 3.02136373 61.8230734 4.2521956 61.8230734 18.56009 26.4331725"></polygon>
                        <polygon id="Path-16" fill="none" points="12.3505337 22.6920305 2.24272944 61.9720988 0.838600302 61.9720988 11.3294036 21.8760402"></polygon>
                        <polygon id="Path-18" fill="none" points="20.0524668 10.7826087 20.0524668 13.4936554 17.3930031 16.4509054 16.8888889 14.0782002"></polygon>
                        <polyline id="Path-17" fill="none" points="10.3407574 1.1315425 20.2637341 8.6004403 31.9205386 10.619303"></polyline>
                        <polyline id="Path-20" fill="none" points="20.3105709 8.6644449 15.7537002 13.5531684 17.3895177 25.9760219"></polyline>
                        <path d="M5.12869238,6.08181567 L15.7306288,13.5854338" id="Path-21" fill="none"></path>
                    </g>
                </g>
            </g>
        </g>
    </g>
</svg>